<svg enable-background="new 0 0 32 32" height="300" viewBox="0 0 32 32" width="300" xmlns="http://www.w3.org/2000/svg" version="1.1" xmlns:xlink="http://www.w3.org/1999/xlink" xmlns:svgjs="http://svgjs.dev/svgjs"><g width="100%" height="100%" transform="matrix(1,0,0,1,0,0)"><g id="Layer_1"><path d="m25.89 1h-19.78c-2.82 0-5.11 2.29-5.11 5.11v19.78c0 2.82 2.29 5.11 5.11 5.11h19.78c2.82 0 5.11-2.29 5.11-5.11v-19.78c0-2.82-2.29-5.11-5.11-5.11zm-4.91 16.26-6.59 3.59c-.95.52-2.11-.17-2.11-1.2599v-7.1801c0-1.09 1.16-1.78 2.11-1.2599l6.59 3.59c.99.5499.99 1.9699 0 2.5199z" fill="#7c3aed" fill-opacity="1" data-original-color="#000000ff" stroke="none" stroke-opacity="1"/></g></g></svg>